<?xml version="1.0" standalone="no"?>
<!DOCTYPE svg PUBLIC "-//W3C//DTD SVG 20010904//EN"
 "http://www.w3.org/TR/2001/REC-SVG-20010904/DTD/svg10.dtd">
<svg version="1.0" xmlns="http://www.w3.org/2000/svg"
 width="484.000000pt" height="484.000000pt" viewBox="0 0 484.000000 484.000000"
 preserveAspectRatio="xMidYMid meet">
<metadata>
Created by potrace 1.14, written by Peter Selinger 2001-2017
</metadata>
<g transform="translate(0.000000,484.000000) scale(0.100000,-0.100000)"
fill="#000000" stroke="none">
<path d="M1105 4829 c-471 -61 -886 -400 -1034 -844 -70 -211 -66 -118 -66
-1560 0 -1012 3 -1315 13 -1367 103 -543 497 -937 1040 -1040 52 -10 355 -13
1367 -13 1442 0 1349 -4 1560 66 451 150 785 566 845 1049 14 116 14 2484 0
2600 -60 483 -395 899 -845 1049 -210 70 -103 65 -1525 67 -725 1 -1316 -2
-1355 -7z m2310 -1969 c545 -814 991 -1486 993 -1493 1 -7 -13 -18 -33 -26
-19 -7 -35 -17 -35 -22 0 -6 -4 -8 -9 -5 -5 4 -323 -116 -708 -265 -384 -149
-812 -315 -950 -369 l-253 -98 -937 365 c-516 200 -948 365 -960 366 -13 1
-23 5 -23 9 0 4 -16 12 -35 19 -20 8 -34 19 -33 26 4 16 1981 2972 1988 2972
3 0 450 -665 995 -1479z"/>
<path d="M2350 3735 c-35 -53 -61 -97 -59 -99 2 -1 32 -22 67 -45 l62 -42 63
42 c34 23 64 44 66 45 6 5 -120 194 -129 194 -4 0 -36 -43 -70 -95z"/>
<path d="M1582 2588 c-298 -446 -541 -812 -540 -813 2 -1 281 129 621 289
l617 291 0 476 0 476 -70 47 c-38 25 -73 46 -77 46 -5 0 -252 -365 -551 -812z"/>
<path d="M2633 3353 l-73 -46 0 -477 0 -478 48 -20 c26 -12 305 -142 619 -290
315 -149 569 -263 565 -256 -22 39 -1078 1614 -1082 1614 -3 0 -38 -21 -77
-47z"/>
<path d="M1715 1780 c-302 -143 -588 -278 -635 -301 l-85 -41 150 -59 c83 -32
366 -142 630 -244 264 -103 486 -189 493 -192 9 -4 12 109 12 546 0 303 -3
551 -7 550 -5 0 -255 -117 -558 -259z"/>
<path d="M2560 1489 c0 -320 4 -549 9 -547 297 110 1268 495 1263 500 -8 8
-1258 598 -1267 598 -3 0 -5 -248 -5 -551z"/>
</g>
</svg>
